<?xml version="1.0" encoding="utf-8"?>
<!-- Generator: Adobe Illustrator 22.1.0, SVG Export Plug-In . SVG Version: 6.00 Build 0)  -->
<svg class="logotype" version="1.1" id="Layer_1" xmlns="http://www.w3.org/2000/svg" xmlns:xlink="http://www.w3.org/1999/xlink" x="0px" y="0px"
	 viewBox="0 0 955.2 128" style="enable-background:new 0 0 955.2 128;" xml:space="preserve">
<style type="text/css">
	.st0{fill:#EE2943;}
</style>
<g>
	<path class="st0" d="M80.2,2.5c7,0,13.4,1,19.3,3c5.9,2,11,4.9,15.2,8.7c4.3,3.8,7.6,8.4,10,13.8c2.4,5.5,3.6,11.7,3.6,18.7
		c0,1.4-0.1,2.8-0.2,4.2c-0.1,1.4-0.3,2.8-0.5,4.3h-27.3c0-8.7-2.3-15.5-7-20.2c-4.7-4.7-10.9-7.1-18.6-7.1c-6,0-11.6,1.1-16.9,3.3
		c-5.2,2.2-9.8,5.2-13.7,9.2s-7,8.6-9.2,14.1c-2.2,5.5-3.4,11.4-3.4,17.8c0,8.2,2.2,14.9,6.7,20.1c4.5,5.2,10.9,7.9,19.3,7.9
		c3.6,0,7.3-0.7,11.2-2c3.9-1.3,7.6-3.1,11.1-5.5c3.5-2.3,6.8-5.2,9.7-8.5c2.9-3.3,5.3-7.1,7.1-11.2h26.3
		c-2.5,7.5-6.2,14.5-11.2,20.9c-5,6.4-10.7,11.9-17.2,16.6c-6.5,4.7-13.4,8.4-20.8,11c-7.4,2.7-14.7,4-22,4
		c-7.9,0-14.8-1.3-20.9-3.8c-6.1-2.5-11.3-6-15.5-10.4c-4.2-4.4-7.4-9.7-9.6-15.7C3.6,89.6,2.5,83.1,2.5,76c0-9.8,2.1-19.2,6.2-28.1
		c4.1-8.9,9.7-16.7,16.8-23.4c7-6.7,15.3-12.1,24.7-16C59.6,4.5,69.6,2.5,80.2,2.5z"/>
	<path class="st0" d="M181.3,125.5c-7.5,0-14.3-1.2-20.3-3.6s-11.1-5.8-15.3-10.1c-4.2-4.3-7.4-9.5-9.6-15.5
		c-2.2-6.1-3.3-12.7-3.3-20c0-11,2.2-21.1,6.7-30.1c4.5-9.1,10.3-16.8,17.6-23.3c7.3-6.5,15.5-11.5,24.8-15.1
		c9.3-3.5,18.8-5.3,28.5-5.3c7.3,0,13.9,1.1,19.8,3.4c5.9,2.2,10.9,5.4,15.1,9.5c4.1,4.1,7.3,9,9.5,14.8c2.2,5.8,3.3,12.2,3.3,19.3
		c0,10.5-2.1,20.3-6.4,29.5c-4.3,9.2-10,17.3-17.1,24.1c-7.2,6.9-15.3,12.3-24.5,16.4C200.8,123.5,191.3,125.5,181.3,125.5z
		 M186.9,100.2c5.3,0,10.6-1.2,15.6-3.5s9.5-5.5,13.4-9.6c3.9-4,7-8.7,9.3-14.1c2.3-5.3,3.5-11.1,3.5-17.2c0-8.2-2.2-14.9-6.5-20.1
		c-4.4-5.2-10.7-7.9-19.1-7.9c-5.7,0-11,1.2-16,3.7c-5,2.5-9.3,5.8-13.1,9.9c-3.8,4.1-6.7,8.9-8.9,14.2c-2.2,5.3-3.3,11-3.3,16.9
		c0,3.9,0.5,7.6,1.6,11c1.1,3.4,2.7,6.3,4.8,8.8c2.1,2.5,4.7,4.4,7.9,5.8C179.3,99.5,182.9,100.2,186.9,100.2z"/>
	<path class="st0" d="M335.3,122.6l-35.2-81l-18.6,81h-25l27-116.8h36.5l26.2,64.3l15.1-64.3h25.5l-27,116.8H335.3z"/>
	<path class="st0" d="M405.7,122.6l21.3-91.5h-34.5l5.9-25.4h97.2l-5.9,25.4h-34.4l-21.1,91.5H405.7z"/>
	<path class="st0" d="M561.3,122.6c-0.9-2-1.3-4.2-1.3-6.7c0-1.9,0.1-3.9,0.4-6.1c0.3-2.2,0.6-4.4,1-6.7c0.4-2.3,0.7-4.5,1-6.8
		c0.3-2.2,0.4-4.3,0.4-6.3c0-3.7-1-6.6-2.9-8.7c-1.9-2.1-5.2-3.2-9.7-3.2h-30.4l-10.3,44.5h-28.5L508.1,5.8h61
		c4.8,0,9.5,0.4,14.1,1.1c4.6,0.7,8.6,2,12.2,3.9c3.5,1.9,6.4,4.6,8.6,8c2.2,3.4,3.3,7.8,3.3,13.2c0,4.5-0.7,8.6-2.2,12.5
		c-1.5,3.9-3.5,7.3-6.1,10.4c-2.6,3-5.6,5.7-9.1,7.9c-3.5,2.2-7.3,3.9-11.5,5c5.1,2.5,8.5,5.8,10.2,9.9c1.7,4.1,2.5,8.7,2.5,13.8
		c0,4-0.4,8.2-1.1,12.5c-0.8,4.3-1.1,8.2-1.1,11.7c0,2.6,0.6,4.9,1.8,6.9H561.3z M531,28.8l-6.2,26.8h36.3c5,0,9-1.6,12-4.7
		c3-3.1,4.5-7.2,4.5-12.2c0-3.5-1.1-6-3.2-7.6c-2.1-1.6-4.9-2.4-8.4-2.4H531z"/>
	<path class="st0" d="M685.1,122.6l-2.6-15.4h-47.6l-9.7,15.4h-30.9L676,5.8h15.7l24.9,116.8H685.1z M672.7,46.4l-25,39.8h31.6
		L672.7,46.4z"/>
	<path class="st0" d="M812.3,40.6c0-3-0.6-5.5-1.7-7.4c-1.1-1.9-2.7-3.4-4.6-4.6c-1.9-1.1-4.1-1.9-6.5-2.4c-2.5-0.4-5-0.7-7.8-0.7
		c-1.6,0-3.9,0.1-6.7,0.4c-2.8,0.3-5.6,0.9-8.3,1.8c-2.7,0.9-5.1,2.3-7.1,4.2c-2,1.9-3,4.4-3,7.7c0,1.7,0.5,3.2,1.5,4.5
		c1,1.3,2.2,2.3,3.7,3.2c1.5,0.9,3.1,1.6,4.7,2c1.7,0.5,3.3,0.9,4.8,1.2c7.9,1.3,14.9,2.6,21,3.8s11.4,2.8,15.6,4.7
		c4.3,2,7.5,4.6,9.7,7.8c2.2,3.2,3.4,7.5,3.4,12.8c0,8.5-1.7,15.7-5.1,21.5c-3.4,5.8-7.8,10.6-13.4,14.2c-5.6,3.6-11.9,6.2-19.1,7.8
		c-7.2,1.6-14.6,2.4-22.3,2.4c-5.6,0-11.1-0.6-16.5-1.9s-10.3-3.3-14.6-6.2c-4.3-2.9-7.8-6.6-10.5-11.2c-2.7-4.6-4-10.2-4-16.9
		c0-0.9,0-1.7,0.1-2.6c0.1-0.9,0.1-1.7,0.2-2.6h25.5c0,3.6,0.8,6.6,2.5,8.9c1.6,2.4,3.8,4.2,6.4,5.6c2.6,1.4,5.5,2.3,8.8,2.9
		c3.2,0.5,6.5,0.8,9.7,0.8c1.3,0,3.4-0.1,6.4-0.4c2.9-0.3,5.9-0.9,8.8-1.9c2.9-1,5.5-2.5,7.8-4.5c2.2-2,3.4-4.8,3.4-8.4
		c0-2.6-0.8-4.6-2.4-6c-1.6-1.4-3.6-2.3-6-2.9c-3.5-0.9-7.3-1.6-11.4-2.3c-4.1-0.7-8.2-1.4-12.4-2.2c-4.1-0.8-8.2-1.9-12-3.1
		c-3.9-1.3-7.3-2.9-10.2-4.9c-2.9-2-5.3-4.6-7.1-7.7c-1.8-3.1-2.7-7-2.7-11.5c0-8,1.7-14.8,5.1-20.4c3.4-5.6,7.8-10.2,13.2-13.7
		c5.5-3.5,11.6-6,18.4-7.6c6.8-1.6,13.7-2.4,20.5-2.4c5.3,0,10.5,0.6,15.4,1.8c4.9,1.2,9.2,3,12.8,5.6c3.7,2.5,6.6,5.7,8.8,9.6
		c2.2,3.9,3.3,8.5,3.3,13.8c0,1.2-0.1,2.4-0.2,3.6c-0.1,1.2-0.3,2.5-0.5,3.8H812.3z"/>
	<path class="st0" d="M862.2,122.6l21.3-91.5h-34.5l5.9-25.4H952l-5.9,25.4h-34.4l-21.1,91.5H862.2z"/>
</g>
</svg>
